<?xml version="1.0" encoding="UTF-8"?>
<!DOCTYPE svg PUBLIC "-//W3C//DTD SVG 1.1//EN" "http://www.w3.org/Graphics/SVG/1.1/DTD/svg11.dtd">
<svg xmlns="http://www.w3.org/2000/svg" xmlns:xlink="http://www.w3.org/1999/xlink" version="1.1" width="312px" height="162px" viewBox="-0.5 -0.5 312 162"><defs/><g><path d="M 240.5 75.76 L 240.5 73.76 L 299.17 73.96 L 299.18 70.96 L 309.5 75 L 299.16 78.96 L 299.17 75.96 Z" fill="#ffe6cc" stroke="#d79b00" stroke-linejoin="round" stroke-miterlimit="10" pointer-events="all"/><rect x="30" y="0" width="240" height="150" fill="none" stroke="#000000" pointer-events="all"/><rect x="50" y="10" width="30" height="130" fill="#ffff99" stroke="#d6b656" pointer-events="all"/><path d="M 0.51 43.99 L 0.49 42 L 39.16 41.61 L 39.13 38.61 L 49.5 42.5 L 39.21 46.61 L 39.18 43.61 Z" fill="#dae8fc" stroke="#6c8ebf" stroke-linejoin="round" stroke-miterlimit="10" pointer-events="all"/><path d="M 80.49 115.88 L 80.51 113.88 L 89.18 113.94 L 89.19 110.94 L 99.5 115 L 89.15 118.93 L 89.16 115.94 Z" fill="#ffe6cc" stroke="#d79b00" stroke-linejoin="round" stroke-miterlimit="10" pointer-events="all"/><path d="M 80.5 31 L 80.5 29 L 89.17 29 L 89.17 26 L 99.5 30 L 89.17 34 L 89.17 31 Z" fill="#ffe6cc" stroke="#d79b00" stroke-linejoin="round" stroke-miterlimit="10" pointer-events="all"/><rect x="130" y="20" width="40" height="30" fill="#ffff99" stroke="#d6b656" pointer-events="all"/><rect x="100" y="10" width="100" height="60" fill="none" stroke="#000000" pointer-events="all"/><path d="M 100.89 30.8 L 100.91 28.8 L 119.18 28.93 L 119.2 25.93 L 129.5 30 L 119.14 33.93 L 119.16 30.93 Z" fill="#dae8fc" stroke="#6c8ebf" stroke-linejoin="round" stroke-miterlimit="10" pointer-events="all"/><path d="M 170.5 36 L 170.5 34 L 179 34 Q 181 34 181 36 L 181 50 L 181 59 Q 181 61 179 61 L 150 61 L 111 61 Q 109 61 109 59 L 109 43.98 Q 109 42.02 110.95 41.98 L 119.15 41.77 L 119.07 38.77 L 129.5 42.51 L 119.27 46.77 L 119.2 43.77 L 111 43.98 L 111 59 L 150 59 Q 150 59 150 59 L 179 59 L 179 50 Q 179 50 179 50 L 179 36 Z" fill="#ffe6cc" stroke="#d79b00" stroke-linejoin="round" stroke-miterlimit="10" pointer-events="all"/><path d="M 119.15 41.77 L 119.07 38.77 L 129.5 42.51 L 119.27 46.77 L 119.2 43.77" fill="none" stroke="#d79b00" stroke-linejoin="flat" stroke-miterlimit="4" pointer-events="all"/><path d="M 170.5 36 L 170.5 34 L 197.64 33.97 L 197.64 30.97 L 210.13 34.96 L 197.64 38.97 L 197.64 35.97 Z" fill="#ffe6cc" stroke="#d79b00" stroke-linejoin="round" stroke-miterlimit="10" pointer-events="all"/><rect x="130" y="100" width="40" height="30" fill="#ffff99" stroke="#d6b656" pointer-events="all"/><rect x="100" y="90" width="100" height="50" fill="none" stroke="#000000" pointer-events="all"/><path d="M 100.5 116 L 100.5 114 L 119.17 114 L 119.17 111 L 129.5 115 L 119.17 119 L 119.17 116 Z" fill="#dae8fc" stroke="#6c8ebf" stroke-linejoin="round" stroke-miterlimit="10" pointer-events="all"/><path d="M 170.49 116.01 L 170.51 114.01 L 196.72 114.29 L 196.75 111.29 L 209.2 115.42 L 196.67 119.29 L 196.7 116.29 Z" fill="#ffe6cc" stroke="#d79b00" stroke-linejoin="round" stroke-miterlimit="10" pointer-events="all"/><rect x="210" y="10" width="30" height="130" fill="#ffff99" stroke="#d6b656" pointer-events="all"/><path d="M 270.5 76 L 270.5 74 L 279 74 Q 281 74 281 76 L 281 159 Q 281 161 279 161 L 21 161 Q 19 161 19 159 L 19 140 L 19 108.98 Q 19 107.02 20.97 106.98 L 39.15 106.68 L 39.1 103.68 L 49.5 107.51 L 39.24 111.68 L 39.19 108.68 L 21 108.98 L 21 140 Q 21 140 21 140 L 21 159 L 279 159 L 279 76 Z" fill="#ffe6cc" stroke="#d79b00" stroke-linejoin="round" stroke-miterlimit="10" pointer-events="all"/><path d="M 39.15 106.68 L 39.1 103.68 L 49.5 107.51 L 39.24 111.68 L 39.19 108.68" fill="none" stroke="#d79b00" stroke-linejoin="flat" stroke-miterlimit="4" pointer-events="all"/></g></svg>